<svg width="21" height="20" viewBox="0 0 21 20" fill="none" xmlns="http://www.w3.org/2000/svg">
<g clip-path="url(#clip0_11568_4974)">
<path d="M8.5498 6.1002L8.5998 7.2502L7.7998 8.7502L6.5498 11.2002L6.2998 13.2502L7.1998 16.1502L9.2498 17.3002H12.3498L15.2498 15.1002L16.5498 11.6502L13.5498 8.0002L12.6998 5.9502L8.5498 6.1002Z" fill="#ECEFF1"/>
<path d="M15.6498 8.95003C14.8498 7.80003 14.1998 7.10003 13.8498 5.65003C13.4998 4.20003 13.9498 4.60003 13.6498 3.35003C13.4998 2.70003 13.2498 2.25003 12.9998 1.90003C12.6998 1.55003 12.3498 1.35003 12.1498 1.30003C11.6998 1.05003 10.6498 0.650025 9.34978 1.35003C7.99978 2.05003 8.14978 3.55003 8.39978 6.60003C8.39978 6.80003 8.34978 7.05003 8.24978 7.25003C8.04978 7.70003 7.69978 8.10003 7.39978 8.45003C7.04978 8.95003 6.69978 9.45003 6.44978 10C5.84978 11.15 5.29978 12.6 5.44978 13.15C5.69978 13.1 8.84978 17.9 8.84978 18C9.04978 17.95 9.89978 17.95 10.6498 17.95C11.6998 17.9 12.2998 17.85 13.1498 18.05C13.1498 17.9 13.0998 17.75 13.0998 17.6C13.0998 17.3 13.1498 17.05 13.1998 16.7C13.2498 16.45 13.2998 16.2 13.3498 15.9C12.8498 16.35 11.9498 16.85 11.0998 17C10.3498 17.15 9.09978 16.9 8.49978 16.15C8.54978 16.15 8.64978 16.15 8.69978 16.1C8.84978 16.05 8.99978 16 9.04978 15.9C9.19978 15.65 9.09978 15.4 8.99978 15.25C8.89978 15.1 8.14978 14.55 7.79978 14.25C7.44978 13.95 7.24978 13.8 7.04978 13.6L6.64978 13.2C6.54978 13.1 6.49978 13 6.44978 12.95C6.34978 12.7 6.29978 12.4 6.34978 12C6.39978 11.45 6.59978 11 6.84978 10.5C6.94978 10.3 7.19978 9.90003 7.19978 9.90003C7.19978 9.90003 6.34978 12 6.79978 12.65C6.79978 12.65 6.84978 12 7.04978 11.35C7.19978 10.9 7.44978 10.25 7.74978 9.90003C8.04978 9.55003 8.79978 8.25003 8.84978 7.45003C8.84978 7.10003 8.89978 6.75003 8.89978 6.50003C8.69978 6.30003 12.1998 5.80003 12.3998 6.35003C12.4498 6.55003 13.1498 8.35003 13.5498 9.30003C13.7498 9.75003 13.9998 10.15 14.1498 10.65C14.2998 11.2 14.3998 11.95 14.3998 12.7C14.3998 12.85 14.3998 13.1 14.3498 13.35C14.4498 13.35 16.3998 11.25 14.0998 9.50003C14.0998 9.50003 15.4998 10.15 15.5498 11.45C15.5998 12.5 15.1498 13.35 15.0498 13.5C15.0998 13.5 16.0998 13.95 16.1498 13.95C16.3498 13.95 16.7498 13.8 16.7498 13.8C16.7998 13.65 16.9498 13.25 16.9498 13.1C17.2998 11.95 16.4498 10.1 15.6498 8.95003Z" fill="#263238"/>
<path d="M9.30039 5.65039C9.65938 5.65039 9.95039 5.20268 9.95039 4.65039C9.95039 4.09811 9.65938 3.65039 9.30039 3.65039C8.94141 3.65039 8.65039 4.09811 8.65039 4.65039C8.65039 5.20268 8.94141 5.65039 9.30039 5.65039Z" fill="#ECEFF1"/>
<path d="M11.5502 5.7502C12.0196 5.7502 12.4002 5.23532 12.4002 4.6002C12.4002 3.96507 12.0196 3.4502 11.5502 3.4502C11.0808 3.4502 10.7002 3.96507 10.7002 4.6002C10.7002 5.23532 11.0808 5.7502 11.5502 5.7502Z" fill="#ECEFF1"/>
<path d="M9.66318 4.71832C9.62162 4.38957 9.43247 4.14271 9.2407 4.16695C9.04893 4.19119 8.92715 4.47735 8.9687 4.8061C9.01026 5.13486 9.19941 5.38172 9.39118 5.35748C9.58296 5.33324 9.70473 5.04708 9.66318 4.71832Z" fill="#212121"/>
<path d="M11.5 5.4499C11.7761 5.4499 12 5.15889 12 4.7999C12 4.44092 11.7761 4.1499 11.5 4.1499C11.2239 4.1499 11 4.44092 11 4.7999C11 5.15889 11.2239 5.4499 11.5 5.4499Z" fill="#212121"/>
<path d="M18.1501 15.8C17.9501 15.7 17.6001 15.55 17.3001 15.1C17.1501 14.85 17.2001 14.15 16.9501 13.85C16.8001 13.65 16.6001 13.75 16.5501 13.75C16.1001 13.85 15.0501 14.55 14.3501 13.75C14.2501 13.65 14.1001 13.5 13.8501 13.5C13.6001 13.5 13.5001 13.6 13.4001 13.8C13.3001 14 13.3001 14.15 13.3001 14.65C13.3001 15.05 13.3001 15.5 13.2501 15.85C13.1501 16.7 13.0001 17.2 13.0001 17.7C13.0001 18.25 13.1501 18.6 13.3501 18.75C13.5001 18.9 13.7501 19 14.3001 19C14.8501 19 15.2001 18.8 15.5501 18.45C15.8001 18.2 16.0001 18.1 16.7001 17.6C17.2501 17.25 18.1001 16.8 18.2501 16.65C18.3501 16.55 18.5001 16.5 18.5001 16.2C18.5001 15.95 18.3001 15.85 18.1501 15.8ZM8.10012 15.95C7.60012 15.15 7.55012 15 7.20012 14.5C6.90012 14 6.25012 13.05 5.85012 13.05C5.55012 13.05 5.40012 13.2 5.20012 13.4C5.00012 13.6 4.80012 14.05 4.45012 14.3C4.15012 14.55 3.30012 14.5 3.10012 14.8C2.90012 15.1 3.30012 15.55 3.30012 16.3C3.30012 16.6 3.05012 16.8 3.00012 17C2.95012 17.25 2.90012 17.4 3.00012 17.6C3.20012 17.9 3.45012 18 5.15012 18.35C6.05012 18.55 6.90012 19.05 7.45012 19.1C8.00012 19.15 8.95012 19.1 8.95012 17.75C9.00012 16.95 8.55012 16.75 8.10012 15.95ZM9.05012 6.9C8.75012 6.7 8.50012 6.5 8.50012 6.2C8.50012 5.9 8.70012 5.8 9.00012 5.55C9.05012 5.5 9.60012 5 10.1501 5C10.7001 5 11.3501 5.35 11.6001 5.45C12.0501 5.55 12.5001 5.65 12.4501 6C12.4001 6.5 12.3501 6.6 11.8501 6.85C11.5001 6.95 10.8501 7.5 10.4001 7.5C10.2001 7.5 9.90012 7.5 9.70012 7.45C9.55012 7.4 9.30012 7.15 9.05012 6.9Z" fill="#FFC107"/>
<path d="M8.94974 6.5001C9.04974 6.6001 9.19974 6.7001 9.34974 6.7501C9.44974 6.8001 9.59974 6.8501 9.59974 6.8501H10.0497C10.2997 6.8501 10.6497 6.7501 10.9997 6.5501C11.3497 6.4001 11.3997 6.3001 11.6497 6.2001C11.8997 6.0501 12.1497 5.9001 12.0497 5.8501C11.9497 5.8001 11.8497 5.8501 11.4997 6.0501C11.1997 6.2501 10.9497 6.3501 10.6497 6.5001C10.4997 6.5501 10.2997 6.6501 10.1497 6.6501H9.69974C9.54974 6.6501 9.44974 6.6001 9.29974 6.5501C9.19974 6.5001 9.14974 6.4501 9.09974 6.4501C8.99974 6.4001 8.79974 6.2001 8.69974 6.1501C8.69974 6.1501 8.59974 6.1501 8.64974 6.2001L8.94974 6.5001ZM10.4497 5.4001C10.4997 5.5001 10.5997 5.5001 10.6497 5.5501C10.6997 5.6001 10.7497 5.6001 10.7497 5.6001C10.7997 5.5501 10.7497 5.4501 10.6997 5.4501C10.6997 5.3501 10.4497 5.3501 10.4497 5.4001ZM9.64974 5.5001C9.64974 5.5501 9.74974 5.6001 9.74974 5.5501C9.79974 5.5001 9.84974 5.4501 9.89974 5.4501C9.99974 5.4001 9.94974 5.3501 9.79974 5.3501C9.69974 5.4001 9.69974 5.4501 9.64974 5.5001Z" fill="#634703"/>
<path d="M14.4998 14.3502V14.5002C14.5998 14.7002 14.8498 14.7502 15.0498 14.7502C15.3498 14.7502 15.6498 14.5502 15.7998 14.3502C15.7998 14.3002 15.8498 14.2502 15.8998 14.2002C15.9998 14.0502 16.0498 13.9502 16.0998 13.9002C16.0998 13.9002 16.0498 13.8502 16.0498 13.8002C15.9998 13.7002 15.8498 13.6002 15.6498 13.5502C15.4998 13.5002 15.2498 13.4502 15.1498 13.4502C14.6998 13.4002 14.4498 13.5502 14.2998 13.7002C14.2998 13.7002 14.3498 13.7002 14.3498 13.7502C14.4498 13.8502 14.4998 13.9502 14.4998 14.1002C14.5498 14.2002 14.4998 14.2502 14.4998 14.3502Z" fill="#455A64"/>
</g>
<defs>
<clipPath id="clip0_11568_4974">
<rect width="20" height="20" fill="white" transform="translate(0.5)"/>
</clipPath>
</defs>
</svg>
