<svg width="916" height="121" viewBox="0 0 916 121" fill="none" xmlns="http://www.w3.org/2000/svg">
<path d="M314.106 35.8322H331.514L348.197 84.7207L362.269 35.8322H379.387L356.756 106.481H339.928L322.375 55.7068L305.257 106.481H287.993L265.072 35.8322H283.061L297.423 84.7207L314.106 35.8322Z" fill="#242424"/>
<path d="M381.639 87.332C381.639 81.3358 383.573 76.5485 387.442 72.9701C391.407 69.295 396.581 66.9739 402.964 66.0067L421.098 63.2504C424.58 62.7668 426.321 61.0744 426.321 58.173C426.321 54.9814 425.208 52.4185 422.984 50.4843C420.76 48.4533 417.423 47.4378 412.974 47.4378C408.719 47.4378 405.334 48.6467 402.819 51.0645C400.305 53.3857 398.854 56.4321 398.467 60.2039L383.09 56.7223C383.767 50.3392 386.813 44.9233 392.229 40.4745C397.645 35.9289 404.512 33.6562 412.829 33.6562C423.081 33.6562 430.624 36.1224 435.46 41.0547C440.392 45.9871 442.859 52.3218 442.859 60.0589V95.1657C442.859 99.808 442.278 103.58 442.859 106.481H427.336C426.853 105.03 427.336 102.032 427.336 97.4869C422.694 104.934 415.44 108.657 405.576 108.657C398.419 108.657 392.616 106.578 388.167 102.419C383.815 98.1639 381.639 93.1348 381.639 87.332ZM408.767 95.4559C413.99 95.4559 418.197 94.0535 421.388 91.2489C424.677 88.3475 426.321 83.6569 426.321 77.1771V73.9856L407.897 76.7419C401.61 77.8057 398.467 80.9973 398.467 86.3165C398.467 88.831 399.386 91.0071 401.224 92.8446C403.061 94.5855 405.576 95.4559 408.767 95.4559Z" fill="#242424"/>
<path d="M498.743 35.397V52.5152C496.809 52.2251 494.972 52.08 493.231 52.08C480.561 52.08 474.227 58.995 474.227 72.825V106.481H457.398V35.8322H473.791V47.1477C475.435 43.3759 478.095 40.4261 481.77 38.2984C485.445 36.074 489.604 34.9618 494.246 34.9618C495.794 34.9618 497.293 35.1069 498.743 35.397Z" fill="#242424"/>
<path d="M523.672 106.481H506.989V35.8322H523.091V44.8265C525.026 41.3449 527.927 38.6369 531.795 36.7026C535.761 34.7684 539.823 33.8012 543.981 33.8012C548.72 33.8012 552.976 34.8651 556.747 36.9928C560.519 39.1205 563.324 42.2153 565.162 46.2772C570.094 37.9599 577.734 33.8012 588.083 33.8012C595.046 33.8012 600.945 36.074 605.781 40.6195C610.617 45.165 613.035 51.8383 613.035 60.6391V106.481H596.787V63.3955C596.787 59.0434 595.626 55.5617 593.305 52.9505C591.081 50.2425 587.696 48.8885 583.15 48.8885C578.798 48.8885 575.268 50.3876 572.56 53.3857C569.852 56.3838 568.498 60.1072 568.498 64.556V106.481H551.96V63.3955C551.96 59.0434 550.8 55.5617 548.478 52.9505C546.254 50.2425 542.869 48.8885 538.324 48.8885C533.875 48.8885 530.296 50.3876 527.588 53.3857C524.977 56.2871 523.672 60.0105 523.672 64.556V106.481Z" fill="#242424"/>
<path d="M667.594 35.8322H685.003L701.686 84.7207L715.757 35.8322H732.876L710.245 106.481H693.417L675.863 55.7068L658.745 106.481H641.482L618.561 35.8322H636.549L650.911 84.7207L667.594 35.8322Z" fill="#242424"/>
<path d="M756.588 106.481H739.905V35.8322H756.588V106.481ZM740.485 18.714C738.357 16.5863 737.294 14.0234 737.294 11.0253C737.294 8.02719 738.357 5.46429 740.485 3.3366C742.613 1.1122 745.176 0 748.174 0C751.269 0 753.88 1.06385 756.008 3.19154C758.135 5.31922 759.199 7.93047 759.199 11.0253C759.199 14.0234 758.135 16.5863 756.008 18.714C753.88 20.8417 751.269 21.9055 748.174 21.9055C745.176 21.9055 742.613 20.8417 740.485 18.714Z" fill="#242424"/>
<path d="M789.323 65.7166V106.481H772.494V35.8322H788.887V45.2618C791.112 41.3932 794.062 38.5402 797.737 36.7026C801.508 34.7684 805.522 33.8012 809.777 33.8012C818.095 33.8012 824.429 36.4125 828.782 41.635C833.134 46.8575 835.31 53.5791 835.31 61.7997V106.481H818.482V64.7011C818.482 59.9622 817.321 56.1903 815 53.3857C812.679 50.4843 809.004 49.0336 803.975 49.0336C799.332 49.0336 795.706 50.6293 793.094 53.8209C790.58 56.9157 789.323 60.8809 789.323 65.7166Z" fill="#242424"/>
<path d="M861.309 70.9391C861.309 77.709 863.05 83.1733 866.531 87.332C870.013 91.3939 874.607 93.4249 880.313 93.4249C885.826 93.4249 890.323 91.3456 893.805 87.1869C897.286 83.0282 899.027 77.564 899.027 70.794C899.027 64.1208 897.335 58.8016 893.95 54.8364C890.565 50.8711 886.067 48.8885 880.458 48.8885C874.849 48.8885 870.255 50.9195 866.676 54.9814C863.098 58.9467 861.309 64.2659 861.309 70.9391ZM915.275 1.4507V93.57C915.275 98.3089 915.517 102.613 916 106.481H899.897C899.414 103.773 899.172 100.727 899.172 97.3418C897.431 100.533 894.723 103.145 891.048 105.176C887.373 107.207 883.166 108.222 878.427 108.222C868.369 108.222 860.197 104.692 853.91 97.6319C847.624 90.5719 844.481 81.6743 844.481 70.9391C844.481 60.5908 847.624 51.8382 853.91 44.6815C860.293 37.5247 868.369 33.9463 878.137 33.9463C883.746 33.9463 888.243 34.9618 891.628 36.9928C895.11 39.0238 897.528 41.3932 898.882 44.1012V1.4507H915.275Z" fill="#242424"/>
<path d="M53.8661 104.329C38.9859 83.3483 0 23.2252 0 23.2252C10.7137 10.0737 44.075 7.25546 56.2469 23.2252C68.4188 39.195 113.089 107.773 113.089 107.773C90.1736 124.683 68.7462 125.309 53.8661 104.329Z" fill="#242424"/>
<path d="M131.898 104.329C117.017 83.3483 78.0315 23.2252 78.0315 23.2252C88.7452 10.0737 122.106 7.25546 134.278 23.2252C146.45 39.195 191.12 107.773 191.12 107.773C168.205 124.683 146.778 125.309 131.898 104.329Z" fill="#242424"/>
<rect x="169.634" y="12.2793" width="51.2337" height="51.2337" rx="25.6168" fill="#242424"/>
</svg>